<svg width="24" height="24" viewBox="0 0 24 24" fill="none" xmlns="http://www.w3.org/2000/svg">
<path d="M3.53027 11.47V13.588C3.53014 14.1443 3.63959 14.6951 3.85236 15.209C4.06513 15.7229 4.37705 16.1899 4.77032 16.5833C5.16359 16.9766 5.6305 17.2887 6.14438 17.5016C6.65826 17.7145 7.20904 17.824 7.76527 17.824H20.4703M3.53027 6.17603H16.2353C16.7916 6.17589 17.3425 6.28537 17.8565 6.4982C18.3705 6.71104 18.8375 7.02305 19.2309 7.41643C19.6242 7.8098 19.9363 8.27683 20.1491 8.79082C20.3619 9.30482 20.4714 9.85571 20.4713 10.412V12.529" stroke="#FF6C90" stroke-width="1.5" stroke-linecap="round" stroke-linejoin="round"/>
<path d="M17.2943 14.647L20.4713 17.823L17.2943 21M6.7063 9.353L3.5293 6.176L6.7063 3" stroke="#FF6C90" stroke-width="1.5" stroke-linecap="round" stroke-linejoin="round"/>
</svg>
