<svg width="20" height="19" viewBox="0 0 20 19" fill="none" xmlns="http://www.w3.org/2000/svg">
<path fill-rule="evenodd" clip-rule="evenodd" d="M0 5.64267L9.77339 18.6456L19.5468 5.64267L16.289 0H9.77339H3.25777L0 5.64267Z" fill="#EB2D69"/>
<path fill-rule="evenodd" clip-rule="evenodd" d="M13.0312 5.64267L16.2891 0L19.5469 5.64267H13.0312Z" fill="#EB2D69"/>
<path fill-rule="evenodd" clip-rule="evenodd" d="M15.3779 1.57866L16.2894 0L19.5472 5.64267H17.7243L15.3779 1.57866Z" fill="#D71955"/>
<path fill-rule="evenodd" clip-rule="evenodd" d="M0 5.64267L3.25777 0L6.51558 5.64267H0Z" fill="#EB2D69"/>
<path fill-rule="evenodd" clip-rule="evenodd" d="M3.25781 0L6.51562 5.64267L9.77344 0H3.25781Z" fill="#F569A5"/>
<path fill-rule="evenodd" clip-rule="evenodd" d="M3.25781 0L4.1693 1.57866H8.86195L9.77344 0H3.25781Z" fill="#EB2D69"/>
<path fill-rule="evenodd" clip-rule="evenodd" d="M6.51562 5.64267L9.77344 0L13.0312 5.64267H6.51562Z" fill="#D71955"/>
<path fill-rule="evenodd" clip-rule="evenodd" d="M9.77344 0L13.0312 5.64267L16.2891 0H9.77344Z" fill="#F569A5"/>
<path fill-rule="evenodd" clip-rule="evenodd" d="M9.77344 0L10.6849 1.57866H15.3776L16.2891 0H9.77344Z" fill="#EB2D69"/>
<path fill-rule="evenodd" clip-rule="evenodd" d="M13.0312 5.6427H19.5469L9.77344 18.6456L13.0312 5.6427Z" fill="#F569A5"/>
<path fill-rule="evenodd" clip-rule="evenodd" d="M6.51562 5.6427H0L9.77344 18.6456L6.51562 5.6427Z" fill="#F569A5"/>
<path fill-rule="evenodd" clip-rule="evenodd" d="M6.51562 5.6427H13.0312L9.77344 18.6456L6.51562 5.6427Z" fill="#EB2D69"/>
<path fill-rule="evenodd" clip-rule="evenodd" d="M9.77344 18.6456L17.724 5.6427H19.5469L9.77344 18.6456Z" fill="#EB2D69"/>
<path fill-rule="evenodd" clip-rule="evenodd" d="M4.1693 1.57866L3.25781 0L0 5.64267H1.82292L4.1693 1.57866Z" fill="#D71955"/>
<path fill-rule="evenodd" clip-rule="evenodd" d="M9.77344 18.6456L1.82292 5.6427H0L9.77344 18.6456Z" fill="#EB2D69"/>
</svg>
