<svg width="24" height="24" viewBox="0 0 24 24" fill="none" xmlns="http://www.w3.org/2000/svg">
<g clip-path="url(#clip0_159_2683)">
<path d="M16.5666 8.61567C16.943 8.99208 16.943 9.60237 16.5666 9.97878L11.7957 14.7497L11.1398 15.4056C10.7492 15.7962 10.1159 15.7961 9.72542 15.4055L9.06987 14.7497L7.47942 13.1593C7.103 12.7829 7.103 12.1726 7.47942 11.7961C7.85584 11.4197 8.46614 11.4197 8.84256 11.7961L10.0835 13.037C10.2765 13.2301 10.5895 13.2301 10.7826 13.037L15.2035 8.6157C15.5799 8.23926 16.1902 8.23924 16.5666 8.61567Z" fill="#E1235F"/>
<path d="M4.64041 12.4735H0.843555C0.724207 12.4735 0.609748 12.4261 0.525357 12.3417C0.440965 12.2573 0.393555 12.1428 0.393555 12.0235C0.393555 11.9041 0.440965 11.7897 0.525357 11.7053C0.609748 11.6209 0.724207 11.5735 0.843555 11.5735H4.64041C4.75976 11.5735 4.87422 11.6209 4.95861 11.7053C5.043 11.7897 5.09041 11.9041 5.09041 12.0235C5.09041 12.1428 5.043 12.2573 4.95861 12.3417C4.87422 12.4261 4.75976 12.4735 4.64041 12.4735ZM23.2022 12.4735H19.406C19.3469 12.4735 19.2884 12.4619 19.2338 12.4392C19.1792 12.4166 19.1296 12.3835 19.0878 12.3417C19.046 12.2999 19.0128 12.2503 18.9902 12.1957C18.9676 12.1411 18.956 12.0826 18.956 12.0235C18.956 11.9041 19.0034 11.7897 19.0878 11.7053C19.1722 11.6209 19.2866 11.5735 19.406 11.5735H23.2022C23.3215 11.5735 23.436 11.6209 23.5204 11.7053C23.6048 11.7897 23.6522 11.9041 23.6522 12.0235C23.6522 12.1428 23.6048 12.2573 23.5204 12.3417C23.436 12.4261 23.3215 12.4735 23.2022 12.4735ZM12.0232 5.09066C11.9039 5.09066 11.7894 5.04325 11.705 4.95886C11.6206 4.87447 11.5732 4.76001 11.5732 4.64066V0.843799C11.5732 0.724451 11.6206 0.609992 11.705 0.525601C11.7894 0.441209 11.9039 0.393799 12.0232 0.393799C12.1426 0.393799 12.257 0.441209 12.3414 0.525601C12.4258 0.609992 12.4732 0.724451 12.4732 0.843799V4.64066C12.4732 4.76001 12.4258 4.87447 12.3414 4.95886C12.257 5.04325 12.1426 5.09066 12.0232 5.09066ZM12.0232 23.6819C11.9039 23.6819 11.7894 23.6345 11.705 23.5501C11.6206 23.4657 11.5732 23.3512 11.5732 23.2319V19.4062C11.5732 19.2869 11.6206 19.1724 11.705 19.088C11.7894 19.0037 11.9039 18.9562 12.0232 18.9562C12.2718 18.9562 12.4732 19.1577 12.4732 19.4062V23.2319C12.4732 23.3512 12.4258 23.4657 12.3414 23.5501C12.257 23.6345 12.1426 23.6819 12.0232 23.6819ZM19.9551 20.352C19.8959 20.3521 19.8374 20.3405 19.7828 20.3179C19.7282 20.2953 19.6786 20.2621 19.6368 20.2203L16.9518 17.5353C16.8674 17.4509 16.82 17.3364 16.82 17.2171C16.82 17.0977 16.8674 16.9832 16.9518 16.8988C17.0362 16.8144 17.1507 16.767 17.27 16.767C17.3894 16.767 17.5038 16.8144 17.5882 16.8988L20.2732 19.5838C20.3362 19.6468 20.379 19.727 20.3964 19.8142C20.4137 19.9015 20.4048 19.992 20.3708 20.0742C20.3367 20.1564 20.279 20.2267 20.205 20.2762C20.131 20.3256 20.0441 20.352 19.9551 20.352ZM3.91819 20.1787C3.8292 20.1787 3.7422 20.1523 3.66821 20.1028C3.59421 20.0534 3.53654 19.9831 3.50248 19.9009C3.46843 19.8187 3.45952 19.7282 3.47688 19.6409C3.49424 19.5536 3.53709 19.4734 3.60001 19.4105L6.28873 16.7218C6.37361 16.6397 6.48732 16.5943 6.60536 16.5953C6.7234 16.5963 6.83632 16.6437 6.91979 16.7271C7.00326 16.8106 7.05059 16.9235 7.05158 17.0416C7.05257 17.1596 7.00715 17.2733 6.92509 17.3582L4.23637 20.0469C4.19464 20.0887 4.14504 20.1219 4.09044 20.1445C4.03583 20.1671 3.9773 20.1787 3.91819 20.1787ZM17.0382 7.05596C16.9492 7.05596 16.8622 7.02958 16.7882 6.98013C16.7142 6.93069 16.6565 6.86041 16.6225 6.77819C16.5884 6.69596 16.5795 6.60548 16.5968 6.51819C16.6142 6.4309 16.657 6.35072 16.72 6.28778L19.4046 3.6032C19.4891 3.51941 19.6033 3.47252 19.7223 3.47277C19.8413 3.47303 19.9554 3.52041 20.0396 3.60456C20.1237 3.68871 20.1711 3.80276 20.1714 3.92177C20.1716 4.04077 20.1248 4.15504 20.041 4.23956L17.3564 6.92414C17.3147 6.96598 17.2651 6.99917 17.2105 7.02179C17.1559 7.04442 17.0973 7.05603 17.0382 7.05596ZM6.79411 7.26182C6.73501 7.2619 6.67647 7.25029 6.62187 7.22767C6.56726 7.20505 6.51767 7.17186 6.47593 7.13L3.79435 4.44848C3.70997 4.36409 3.66257 4.24964 3.66257 4.1303C3.66257 4.01096 3.70997 3.89651 3.79435 3.81212C3.87874 3.72774 3.9932 3.68034 4.11253 3.68034C4.23187 3.68034 4.34632 3.72774 4.43071 3.81212L7.11223 6.49364C7.17516 6.55657 7.21801 6.63674 7.23537 6.72402C7.25273 6.8113 7.24383 6.90177 7.20978 6.98399C7.17573 7.06621 7.11807 7.13649 7.04408 7.18594C6.97009 7.2354 6.88311 7.2618 6.79411 7.26182Z" fill="#EB2D69"/>
<path d="M9.23539 5.63564C9.1453 5.63564 9.05729 5.60861 8.98273 5.55804C8.90818 5.50748 8.85051 5.43571 8.81719 5.35202L8.10895 3.57362C8.06479 3.46273 8.06648 3.33885 8.11367 3.22922C8.16085 3.11959 8.24964 3.03319 8.36053 2.98904C8.47141 2.94488 8.59529 2.94657 8.70492 2.99376C8.81455 3.04094 8.90095 3.12973 8.94511 3.24062L9.65335 5.01902C9.68056 5.08728 9.69063 5.16117 9.6827 5.23423C9.67476 5.30729 9.64906 5.37729 9.60782 5.43812C9.56659 5.49895 9.51109 5.54876 9.44617 5.58319C9.38124 5.61762 9.30887 5.63563 9.23539 5.63564ZM5.15083 9.77072C5.09654 9.7707 5.0427 9.76082 4.99195 9.74156L3.40741 9.14306C3.35212 9.12218 3.30149 9.09062 3.2584 9.05018C3.21532 9.00973 3.18062 8.96119 3.1563 8.90734C3.13197 8.85348 3.11849 8.79536 3.11663 8.7363C3.11477 8.67723 3.12456 8.61838 3.14545 8.5631C3.16632 8.50781 3.19788 8.45718 3.23833 8.41409C3.27877 8.37101 3.32731 8.33631 3.38116 8.31198C3.43502 8.28766 3.49314 8.27418 3.55221 8.27232C3.61127 8.27046 3.67013 8.28025 3.72541 8.30114L5.30995 8.89964C5.36523 8.92051 5.41586 8.95207 5.45895 8.99252C5.50203 9.03296 5.53673 9.0815 5.56106 9.13535C5.58538 9.18921 5.59886 9.24733 5.60072 9.3064C5.60259 9.36546 5.59279 9.42431 5.57191 9.4796C5.53959 9.56515 5.482 9.63883 5.40677 9.69083C5.33155 9.74284 5.24228 9.7707 5.15083 9.77072ZM3.56677 16.0993C3.46779 16.0994 3.37154 16.0669 3.29291 16.0068C3.21428 15.9467 3.15766 15.8623 3.13182 15.7668C3.10598 15.6712 3.11235 15.5698 3.14996 15.4783C3.18757 15.3867 3.25431 15.3101 3.33985 15.2604L4.92439 14.3374C5.02746 14.2783 5.14974 14.2624 5.26453 14.293C5.37933 14.3237 5.47732 14.3986 5.53714 14.5013C5.59695 14.6039 5.61372 14.7261 5.58379 14.8411C5.55386 14.9561 5.47966 15.0546 5.37739 15.1151L3.79285 16.038C3.72426 16.0781 3.64623 16.0993 3.56677 16.0993ZM8.22565 20.8828C8.15177 20.8828 8.07903 20.8646 8.01386 20.8298C7.94868 20.795 7.89307 20.7447 7.85194 20.6834C7.81081 20.622 7.78543 20.5514 7.77802 20.4779C7.77062 20.4044 7.78142 20.3302 7.80949 20.2619L8.50951 18.5561C8.53193 18.5014 8.56491 18.4517 8.60655 18.4098C8.6482 18.3678 8.6977 18.3345 8.75223 18.3117C8.80676 18.2889 8.86524 18.2771 8.92434 18.2769C8.98344 18.2767 9.042 18.2882 9.09667 18.3106C9.15134 18.3331 9.20105 18.3661 9.24298 18.4077C9.2849 18.4494 9.31821 18.4989 9.341 18.5534C9.3638 18.6079 9.37563 18.6664 9.37582 18.7255C9.37601 18.7846 9.36456 18.8431 9.34213 18.8978L8.64211 20.6036C8.6082 20.6862 8.55051 20.7568 8.47635 20.8066C8.4022 20.8563 8.31493 20.8828 8.22565 20.8828ZM15.8619 20.8828C15.7742 20.8828 15.6883 20.8572 15.615 20.8091C15.5416 20.761 15.4839 20.6925 15.4489 20.612L14.7079 18.9062C14.661 18.7968 14.6594 18.6734 14.7033 18.5628C14.7472 18.4522 14.8331 18.3635 14.9422 18.3161C15.0514 18.2687 15.1748 18.2664 15.2856 18.3098C15.3964 18.3532 15.4855 18.4387 15.5334 18.5476L16.2744 20.2534C16.3042 20.3219 16.3164 20.3967 16.3101 20.4711C16.3037 20.5454 16.279 20.6171 16.2381 20.6795C16.1972 20.7419 16.1414 20.7932 16.0757 20.8287C16.01 20.8642 15.9366 20.8828 15.8619 20.8828ZM20.4146 15.8337C20.3532 15.8336 20.2925 15.821 20.2361 15.7966L18.7169 15.1394C18.6624 15.1162 18.6129 15.0824 18.5715 15.04C18.53 14.9976 18.4973 14.9474 18.4753 14.8923C18.4533 14.8372 18.4424 14.7783 18.4432 14.719C18.4441 14.6597 18.4566 14.6011 18.4802 14.5467C18.5037 14.4922 18.5378 14.443 18.5804 14.4018C18.6231 14.3606 18.6735 14.3282 18.7287 14.3065C18.7839 14.2848 18.8428 14.2742 18.9022 14.2754C18.9615 14.2766 19.0199 14.2895 19.0742 14.3134L20.5934 14.9706C20.6885 15.0116 20.7665 15.0842 20.8143 15.1761C20.862 15.268 20.8766 15.3736 20.8556 15.475C20.8346 15.5764 20.7793 15.6674 20.6989 15.7328C20.6186 15.7981 20.5181 15.8337 20.4146 15.8337ZM18.7703 9.47144C18.6829 9.47147 18.5975 9.44608 18.5243 9.39836C18.4511 9.35064 18.3934 9.28265 18.3583 9.2027C18.3102 9.09348 18.3074 8.96962 18.3506 8.85837C18.3938 8.74712 18.4794 8.65759 18.5887 8.60948L20.2334 7.88504C20.3424 7.83869 20.4652 7.83712 20.5753 7.88068C20.6853 7.92423 20.7738 8.0094 20.8215 8.11774C20.8693 8.22608 20.8724 8.34885 20.8302 8.45947C20.788 8.57008 20.704 8.65963 20.5963 8.70872L18.9515 9.43316C18.8944 9.45837 18.8327 9.47141 18.7703 9.47144ZM14.9957 5.71376C14.9257 5.71379 14.8567 5.69749 14.7941 5.66616C14.7315 5.63484 14.6771 5.58934 14.6351 5.53329C14.5932 5.47724 14.5649 5.41218 14.5526 5.34329C14.5402 5.2744 14.5441 5.20357 14.5639 5.13644L15.1111 3.27998C15.1814 3.0416 15.4316 2.9051 15.67 2.9756C15.7845 3.00935 15.8809 3.08718 15.9379 3.19198C15.995 3.29678 16.0081 3.41997 15.9744 3.53444L15.4271 5.3909C15.3997 5.48404 15.3428 5.56581 15.265 5.62399C15.1873 5.68218 15.0928 5.71366 14.9957 5.71376Z" fill="#FF69A5"/>
</g>
<defs>
<clipPath id="clip0_159_2683">
<rect width="24" height="24" fill="white"/>
</clipPath>
</defs>
</svg>
